# xmcd
#
# Track frame offsets:
#	150
#	7355
#	40075
#	44639
#	76206
#	81208
#	109940
#	114343
#	153897
#	157976
#	179728
#	182221
#	202813
#
# Disc length: 2734 seconds
#
# Revision: 1
# Processed by: cddbd v1.5.2PL0 Copyright (c) Steve Scherf et al.
# Submitted via: audiograbber 1.83.01
#
DISCID=a40aac0d
DTITLE=Bibi Amrit Kaur - Calmness In The Rush
DYEAR=2008
DGENRE=Gurbani
TTITLE0=Intro
TTITLE1=Guidance
TTITLE2=Commentary 2
TTITLE3=Equilibrium
TTITLE4=Commentary 3
TTITLE5=I Wish
TTITLE6=Commentary 4
TTITLE7=Door To My Heart
TTITLE8=Commentary 5
TTITLE9=Fulfil All Hopes
TTITLE10=Commentary 6
TTITLE11=Eternal Prayer
TTITLE12=Conclusion
EXTD=SikhRoots.com
EXTT0=
EXTT1=
EXTT2=
EXTT3=
EXTT4=
EXTT5=
EXTT6=
EXTT7=
EXTT8=
EXTT9=
EXTT10=
EXTT11=
EXTT12=
PLAYORDER=
